<svg width="132" height="40" viewBox="0 0 132 40" fill="none" xmlns="http://www.w3.org/2000/svg">
<path d="M36.6667 3.33325L18.3333 21.6666" stroke="white" stroke-width="2" stroke-linecap="round" stroke-linejoin="round"/>
<path d="M36.6667 3.33325L25 36.6666L18.3333 21.6666L3.33334 14.9999L36.6667 3.33325Z" stroke="white" stroke-width="2" stroke-linecap="round" stroke-linejoin="round"/>
<path d="M61.072 14.768V16.96H58.096V26H55.36V16.96H52.384V14.768H61.072ZM70.8611 21.392C70.8611 21.648 70.8451 21.9147 70.8131 22.192H64.6211C64.6638 22.7467 64.8398 23.1733 65.1491 23.472C65.4691 23.76 65.8585 23.904 66.3171 23.904C66.9998 23.904 67.4745 23.616 67.7411 23.04H70.6531C70.5038 23.6267 70.2318 24.1547 69.8371 24.624C69.4531 25.0933 68.9678 25.4613 68.3811 25.728C67.7945 25.9947 67.1385 26.128 66.4131 26.128C65.5385 26.128 64.7598 25.9413 64.0771 25.568C63.3945 25.1947 62.8611 24.6613 62.4771 23.968C62.0931 23.2747 61.9011 22.464 61.9011 21.536C61.9011 20.608 62.0878 19.7973 62.4611 19.104C62.8451 18.4107 63.3785 17.8773 64.0611 17.504C64.7438 17.1307 65.5278 16.944 66.4131 16.944C67.2771 16.944 68.0451 17.1253 68.7171 17.488C69.3891 17.8507 69.9118 18.368 70.2851 19.04C70.6691 19.712 70.8611 20.496 70.8611 21.392ZM68.0611 20.672C68.0611 20.2027 67.9011 19.8293 67.5811 19.552C67.2611 19.2747 66.8611 19.136 66.3811 19.136C65.9225 19.136 65.5331 19.2693 65.2131 19.536C64.9038 19.8027 64.7118 20.1813 64.6371 20.672H68.0611ZM75.0405 14.16V26H72.3045V14.16H75.0405ZM85.4392 21.392C85.4392 21.648 85.4233 21.9147 85.3913 22.192H79.1993C79.2419 22.7467 79.4179 23.1733 79.7273 23.472C80.0473 23.76 80.4366 23.904 80.8953 23.904C81.5779 23.904 82.0526 23.616 82.3193 23.04H85.2313C85.0819 23.6267 84.8099 24.1547 84.4153 24.624C84.0313 25.0933 83.5459 25.4613 82.9593 25.728C82.3726 25.9947 81.7166 26.128 80.9913 26.128C80.1166 26.128 79.3379 25.9413 78.6553 25.568C77.9726 25.1947 77.4393 24.6613 77.0553 23.968C76.6713 23.2747 76.4793 22.464 76.4793 21.536C76.4793 20.608 76.6659 19.7973 77.0393 19.104C77.4233 18.4107 77.9566 17.8773 78.6393 17.504C79.3219 17.1307 80.1059 16.944 80.9913 16.944C81.8553 16.944 82.6233 17.1253 83.2953 17.488C83.9673 17.8507 84.4899 18.368 84.8633 19.04C85.2473 19.712 85.4392 20.496 85.4392 21.392ZM82.6393 20.672C82.6393 20.2027 82.4793 19.8293 82.1593 19.552C81.8393 19.2747 81.4393 19.136 80.9593 19.136C80.5006 19.136 80.1113 19.2693 79.7913 19.536C79.4819 19.8027 79.2899 20.1813 79.2153 20.672H82.6393ZM90.2746 16.944C90.904 16.944 91.4533 17.072 91.9226 17.328C92.4026 17.584 92.7706 17.92 93.0266 18.336V17.072H95.7626V25.984C95.7626 26.8053 95.5973 27.5467 95.2666 28.208C94.9466 28.88 94.4506 29.4133 93.7786 29.808C93.1173 30.2027 92.2906 30.4 91.2986 30.4C89.976 30.4 88.904 30.0853 88.0826 29.456C87.2613 28.8373 86.792 27.9947 86.6746 26.928H89.3786C89.464 27.2693 89.6666 27.536 89.9866 27.728C90.3066 27.9307 90.7013 28.032 91.1706 28.032C91.736 28.032 92.184 27.8667 92.5146 27.536C92.856 27.216 93.0266 26.6987 93.0266 25.984V24.72C92.76 25.136 92.392 25.4773 91.9226 25.744C91.4533 26 90.904 26.128 90.2746 26.128C89.5386 26.128 88.872 25.9413 88.2746 25.568C87.6773 25.184 87.2026 24.6453 86.8506 23.952C86.5093 23.248 86.3386 22.4373 86.3386 21.52C86.3386 20.6027 86.5093 19.7973 86.8506 19.104C87.2026 18.4107 87.6773 17.8773 88.2746 17.504C88.872 17.1307 89.5386 16.944 90.2746 16.944ZM93.0266 21.536C93.0266 20.8533 92.8346 20.3147 92.4506 19.92C92.0773 19.5253 91.6186 19.328 91.0746 19.328C90.5306 19.328 90.0666 19.5253 89.6826 19.92C89.3093 20.304 89.1226 20.8373 89.1226 21.52C89.1226 22.2027 89.3093 22.7467 89.6826 23.152C90.0666 23.5467 90.5306 23.744 91.0746 23.744C91.6186 23.744 92.0773 23.5467 92.4506 23.152C92.8346 22.7573 93.0266 22.2187 93.0266 21.536ZM100.478 18.56C100.798 18.0693 101.198 17.6853 101.678 17.408C102.158 17.12 102.691 16.976 103.278 16.976V19.872H102.526C101.843 19.872 101.331 20.0213 100.99 20.32C100.649 20.608 100.478 21.12 100.478 21.856V26H97.742V17.072H100.478V18.56ZM104.042 21.52C104.042 20.6027 104.212 19.7973 104.554 19.104C104.906 18.4107 105.38 17.8773 105.978 17.504C106.575 17.1307 107.242 16.944 107.978 16.944C108.607 16.944 109.156 17.072 109.626 17.328C110.106 17.584 110.474 17.92 110.73 18.336V17.072H113.466V26H110.73V24.736C110.463 25.152 110.09 25.488 109.61 25.744C109.14 26 108.591 26.128 107.962 26.128C107.236 26.128 106.575 25.9413 105.978 25.568C105.38 25.184 104.906 24.6453 104.554 23.952C104.212 23.248 104.042 22.4373 104.042 21.52ZM110.73 21.536C110.73 20.8533 110.538 20.3147 110.154 19.92C109.78 19.5253 109.322 19.328 108.778 19.328C108.234 19.328 107.77 19.5253 107.386 19.92C107.012 20.304 106.826 20.8373 106.826 21.52C106.826 22.2027 107.012 22.7467 107.386 23.152C107.77 23.5467 108.234 23.744 108.778 23.744C109.322 23.744 109.78 23.5467 110.154 23.152C110.538 22.7573 110.73 22.2187 110.73 21.536ZM126.837 16.976C127.946 16.976 128.826 17.312 129.477 17.984C130.138 18.656 130.469 19.5893 130.469 20.784V26H127.749V21.152C127.749 20.576 127.594 20.1333 127.285 19.824C126.986 19.504 126.57 19.344 126.037 19.344C125.504 19.344 125.082 19.504 124.773 19.824C124.474 20.1333 124.325 20.576 124.325 21.152V26H121.605V21.152C121.605 20.576 121.45 20.1333 121.141 19.824C120.842 19.504 120.426 19.344 119.893 19.344C119.36 19.344 118.938 19.504 118.629 19.824C118.33 20.1333 118.181 20.576 118.181 21.152V26H115.445V17.072H118.181V18.192C118.458 17.8187 118.821 17.5253 119.269 17.312C119.717 17.088 120.224 16.976 120.789 16.976C121.461 16.976 122.058 17.12 122.581 17.408C123.114 17.696 123.53 18.1067 123.829 18.64C124.138 18.1493 124.56 17.7493 125.093 17.44C125.626 17.1307 126.208 16.976 126.837 16.976Z" fill="white"/>
</svg>
