<svg width="107" height="40" viewBox="0 0 107 40" fill="none" xmlns="http://www.w3.org/2000/svg">
<path d="M18.3333 18.3333V11.6666M26.6667 18.3333V11.6666M35 3.33325H5V29.9999H13.3333V36.6666L20 29.9999H28.3333L35 23.3333V3.33325Z" stroke="#9146FF" stroke-width="2" stroke-linecap="round" stroke-linejoin="round"/>
<path d="M61.072 14.768V16.96H58.096V26H55.36V16.96H52.384V14.768H61.072ZM75.2611 17.072L72.8451 26H69.8211L68.4131 20.208L66.9571 26H63.9491L61.5171 17.072H64.2531L65.5171 23.456L67.0211 17.072H69.9171L71.4371 23.424L72.6851 17.072H75.2611ZM77.6805 16.144C77.2005 16.144 76.8058 16.0053 76.4965 15.728C76.1978 15.44 76.0485 15.088 76.0485 14.672C76.0485 14.2453 76.1978 13.8933 76.4965 13.616C76.8058 13.328 77.2005 13.184 77.6805 13.184C78.1498 13.184 78.5338 13.328 78.8325 13.616C79.1418 13.8933 79.2965 14.2453 79.2965 14.672C79.2965 15.088 79.1418 15.44 78.8325 15.728C78.5338 16.0053 78.1498 16.144 77.6805 16.144ZM79.0405 17.072V26H76.3045V17.072H79.0405ZM85.9993 23.68V26H84.6073C83.6153 26 82.8419 25.76 82.2873 25.28C81.7326 24.7893 81.4553 23.9947 81.4553 22.896V19.344H80.3673V17.072H81.4553V14.896H84.1913V17.072H85.9833V19.344H84.1913V22.928C84.1913 23.1947 84.2553 23.3867 84.3833 23.504C84.5113 23.6213 84.7246 23.68 85.0233 23.68H85.9993ZM86.9793 21.536C86.9793 20.608 87.1659 19.7973 87.5393 19.104C87.9233 18.4107 88.4513 17.8773 89.1233 17.504C89.8059 17.1307 90.5846 16.944 91.4593 16.944C92.5793 16.944 93.5126 17.2373 94.2593 17.824C95.0166 18.4107 95.5126 19.2373 95.7473 20.304H92.8353C92.5899 19.6213 92.1153 19.28 91.4113 19.28C90.9099 19.28 90.5099 19.4773 90.2113 19.872C89.9126 20.256 89.7633 20.8107 89.7633 21.536C89.7633 22.2613 89.9126 22.8213 90.2113 23.216C90.5099 23.6 90.9099 23.792 91.4113 23.792C92.1153 23.792 92.5899 23.4507 92.8353 22.768H95.7473C95.5126 23.8133 95.0166 24.6347 94.2593 25.232C93.5019 25.8293 92.5686 26.128 91.4593 26.128C90.5846 26.128 89.8059 25.9413 89.1233 25.568C88.4513 25.1947 87.9233 24.6613 87.5393 23.968C87.1659 23.2747 86.9793 22.464 86.9793 21.536ZM102.699 16.976C103.723 16.976 104.544 17.3173 105.163 18C105.781 18.672 106.091 19.6 106.091 20.784V26H103.371V21.152C103.371 20.5547 103.216 20.0907 102.907 19.76C102.597 19.4293 102.181 19.264 101.659 19.264C101.136 19.264 100.72 19.4293 100.411 19.76C100.101 20.0907 99.9468 20.5547 99.9468 21.152V26H97.2108V14.16H99.9468V18.272C100.224 17.8773 100.603 17.5627 101.083 17.328C101.563 17.0933 102.101 16.976 102.699 16.976Z" fill="#9146FF"/>
</svg>
