<svg width="110" height="40" viewBox="0 0 110 40" fill="none" xmlns="http://www.w3.org/2000/svg">
<path d="M38.3333 4.99991C36.7373 6.12571 34.9702 6.98676 33.1 7.54991C32.0962 6.39577 30.7622 5.57773 29.2784 5.20646C27.7946 4.83518 26.2325 4.92857 24.8035 5.474C23.3744 6.01943 22.1474 6.99058 21.2883 8.25611C20.4292 9.52163 19.9795 11.0205 20 12.5499V14.2166C17.0711 14.2925 14.1688 13.6429 11.5517 12.3257C8.93457 11.0084 6.68386 9.06431 5 6.66658C5 6.66658 -1.66667 21.6666 13.3333 28.3332C9.90088 30.6632 5.81193 31.8315 1.66666 31.6666C16.6667 39.9999 35 31.6666 35 12.4999C34.9985 12.0357 34.9538 11.5726 34.8667 11.1166C36.5677 9.43907 37.768 7.3211 38.3333 4.99991Z" stroke="white" stroke-width="2" stroke-linecap="round" stroke-linejoin="round"/>
<path d="M61.072 14.768V16.96H58.096V26H55.36V16.96H52.384V14.768H61.072ZM75.2611 17.072L72.8451 26H69.8211L68.4131 20.208L66.9571 26H63.9491L61.5171 17.072H64.2531L65.5171 23.456L67.0211 17.072H69.9171L71.4371 23.424L72.6851 17.072H75.2611ZM77.6805 16.144C77.2005 16.144 76.8058 16.0053 76.4965 15.728C76.1978 15.44 76.0485 15.088 76.0485 14.672C76.0485 14.2453 76.1978 13.8933 76.4965 13.616C76.8058 13.328 77.2005 13.184 77.6805 13.184C78.1498 13.184 78.5338 13.328 78.8325 13.616C79.1418 13.8933 79.2965 14.2453 79.2965 14.672C79.2965 15.088 79.1418 15.44 78.8325 15.728C78.5338 16.0053 78.1498 16.144 77.6805 16.144ZM79.0405 17.072V26H76.3045V17.072H79.0405ZM85.9993 23.68V26H84.6073C83.6153 26 82.8419 25.76 82.2873 25.28C81.7326 24.7893 81.4553 23.9947 81.4553 22.896V19.344H80.3673V17.072H81.4553V14.896H84.1913V17.072H85.9833V19.344H84.1913V22.928C84.1913 23.1947 84.2553 23.3867 84.3833 23.504C84.5113 23.6213 84.7246 23.68 85.0233 23.68H85.9993ZM92.4993 23.68V26H91.1073C90.1153 26 89.3419 25.76 88.7873 25.28C88.2326 24.7893 87.9553 23.9947 87.9553 22.896V19.344H86.8673V17.072H87.9553V14.896H90.6913V17.072H92.4833V19.344H90.6913V22.928C90.6913 23.1947 90.7553 23.3867 90.8833 23.504C91.0113 23.6213 91.2246 23.68 91.5233 23.68H92.4993ZM102.439 21.392C102.439 21.648 102.423 21.9147 102.391 22.192H96.1993C96.2419 22.7467 96.4179 23.1733 96.7273 23.472C97.0473 23.76 97.4366 23.904 97.8953 23.904C98.5779 23.904 99.0526 23.616 99.3193 23.04H102.231C102.082 23.6267 101.81 24.1547 101.415 24.624C101.031 25.0933 100.546 25.4613 99.9593 25.728C99.3726 25.9947 98.7166 26.128 97.9913 26.128C97.1166 26.128 96.3379 25.9413 95.6553 25.568C94.9726 25.1947 94.4393 24.6613 94.0553 23.968C93.6713 23.2747 93.4793 22.464 93.4793 21.536C93.4793 20.608 93.6659 19.7973 94.0393 19.104C94.4233 18.4107 94.9566 17.8773 95.6393 17.504C96.3219 17.1307 97.1059 16.944 97.9913 16.944C98.8553 16.944 99.6233 17.1253 100.295 17.488C100.967 17.8507 101.49 18.368 101.863 19.04C102.247 19.712 102.439 20.496 102.439 21.392ZM99.6393 20.672C99.6393 20.2027 99.4793 19.8293 99.1593 19.552C98.8393 19.2747 98.4393 19.136 97.9593 19.136C97.5006 19.136 97.1113 19.2693 96.7913 19.536C96.4819 19.8027 96.2899 20.1813 96.2153 20.672H99.6393ZM106.619 18.56C106.939 18.0693 107.339 17.6853 107.819 17.408C108.299 17.12 108.832 16.976 109.419 16.976V19.872H108.667C107.984 19.872 107.472 20.0213 107.131 20.32C106.789 20.608 106.619 21.12 106.619 21.856V26H103.883V17.072H106.619V18.56Z" fill="white"/>
</svg>
