<svg width="125" height="40" viewBox="0 0 125 40" fill="none" xmlns="http://www.w3.org/2000/svg">
<path d="M37.5667 10.7001C37.3687 9.9091 36.9655 9.18437 36.3978 8.59909C35.83 8.01382 35.1179 7.58872 34.3333 7.36675C31.4667 6.66675 20 6.66675 20 6.66675C20 6.66675 8.53333 6.66675 5.66666 7.43341C4.88208 7.65539 4.16996 8.08048 3.60224 8.66576C3.03452 9.25103 2.63131 9.97576 2.43333 10.7667C1.90869 13.676 1.65206 16.6273 1.66666 19.5834C1.64796 22.5618 1.90461 25.5356 2.43333 28.4667C2.6516 29.2332 3.06384 29.9303 3.63024 30.4909C4.19663 31.0514 4.89803 31.4564 5.66666 31.6667C8.53333 32.4334 20 32.4334 20 32.4334C20 32.4334 31.4667 32.4334 34.3333 31.6667C35.1179 31.4448 35.83 31.0197 36.3978 30.4344C36.9655 29.8491 37.3687 29.1244 37.5667 28.3334C38.0873 25.4461 38.3439 22.5173 38.3333 19.5834C38.352 16.605 38.0954 13.6312 37.5667 10.7001Z" stroke="white" stroke-width="2" stroke-linecap="round" stroke-linejoin="round"/>
<path d="M16.25 25.0333L25.8333 19.5833L16.25 14.1333V25.0333Z" stroke="white" stroke-width="2" stroke-linecap="round" stroke-linejoin="round"/>
<path d="M62.624 14.768L58.736 22.288V26H56V22.288L52.112 14.768H55.216L57.392 19.472L59.552 14.768H62.624ZM67.7904 26.128C66.9157 26.128 66.1264 25.9413 65.4224 25.568C64.729 25.1947 64.1797 24.6613 63.7744 23.968C63.3797 23.2747 63.1824 22.464 63.1824 21.536C63.1824 20.6187 63.385 19.8133 63.7904 19.12C64.1957 18.416 64.7504 17.8773 65.4544 17.504C66.1584 17.1307 66.9477 16.944 67.8224 16.944C68.697 16.944 69.4864 17.1307 70.1904 17.504C70.8944 17.8773 71.449 18.416 71.8544 19.12C72.2597 19.8133 72.4624 20.6187 72.4624 21.536C72.4624 22.4533 72.2544 23.264 71.8384 23.968C71.433 24.6613 70.873 25.1947 70.1584 25.568C69.4544 25.9413 68.665 26.128 67.7904 26.128ZM67.7904 23.76C68.313 23.76 68.7557 23.568 69.1184 23.184C69.4917 22.8 69.6784 22.2507 69.6784 21.536C69.6784 20.8213 69.497 20.272 69.1344 19.888C68.7824 19.504 68.345 19.312 67.8224 19.312C67.289 19.312 66.8464 19.504 66.4944 19.888C66.1424 20.2613 65.9664 20.8107 65.9664 21.536C65.9664 22.2507 66.137 22.8 66.4784 23.184C66.8304 23.568 67.2677 23.76 67.7904 23.76ZM82.7299 17.072V26H79.9939V24.784C79.7165 25.1787 79.3379 25.4987 78.8579 25.744C78.3885 25.9787 77.8659 26.096 77.2899 26.096C76.6072 26.096 76.0045 25.9467 75.4819 25.648C74.9592 25.3387 74.5539 24.896 74.2659 24.32C73.9779 23.744 73.8339 23.0667 73.8339 22.288V17.072H76.5539V21.92C76.5539 22.5173 76.7085 22.9813 77.0179 23.312C77.3272 23.6427 77.7432 23.808 78.2659 23.808C78.7992 23.808 79.2205 23.6427 79.5299 23.312C79.8392 22.9813 79.9939 22.5173 79.9939 21.92V17.072H82.7299ZM92.7751 14.768V16.96H89.7991V26H87.0631V16.96H84.0871V14.768H92.7751ZM102.964 17.072V26H100.228V24.784C99.9509 25.1787 99.5723 25.4987 99.0923 25.744C98.6229 25.9787 98.1003 26.096 97.5243 26.096C96.8416 26.096 96.2389 25.9467 95.7163 25.648C95.1936 25.3387 94.7883 24.896 94.5003 24.32C94.2123 23.744 94.0683 23.0667 94.0683 22.288V17.072H96.7883V21.92C96.7883 22.5173 96.9429 22.9813 97.2523 23.312C97.5616 23.6427 97.9776 23.808 98.5003 23.808C99.0336 23.808 99.4549 23.6427 99.7643 23.312C100.074 22.9813 100.228 22.5173 100.228 21.92V17.072H102.964ZM107.666 18.336C107.922 17.92 108.29 17.584 108.77 17.328C109.25 17.072 109.799 16.944 110.418 16.944C111.154 16.944 111.82 17.1307 112.418 17.504C113.015 17.8773 113.484 18.4107 113.826 19.104C114.178 19.7973 114.354 20.6027 114.354 21.52C114.354 22.4373 114.178 23.248 113.826 23.952C113.484 24.6453 113.015 25.184 112.418 25.568C111.82 25.9413 111.154 26.128 110.418 26.128C109.788 26.128 109.239 26.0053 108.77 25.76C108.3 25.504 107.932 25.168 107.666 24.752V26H104.93V14.16H107.666V18.336ZM111.57 21.52C111.57 20.8373 111.378 20.304 110.994 19.92C110.62 19.5253 110.156 19.328 109.602 19.328C109.058 19.328 108.594 19.5253 108.21 19.92C107.836 20.3147 107.65 20.8533 107.65 21.536C107.65 22.2187 107.836 22.7573 108.21 23.152C108.594 23.5467 109.058 23.744 109.602 23.744C110.146 23.744 110.61 23.5467 110.994 23.152C111.378 22.7467 111.57 22.2027 111.57 21.52ZM124.205 21.392C124.205 21.648 124.189 21.9147 124.157 22.192H117.965C118.008 22.7467 118.184 23.1733 118.493 23.472C118.813 23.76 119.202 23.904 119.661 23.904C120.344 23.904 120.818 23.616 121.085 23.04H123.997C123.848 23.6267 123.576 24.1547 123.181 24.624C122.797 25.0933 122.312 25.4613 121.725 25.728C121.138 25.9947 120.482 26.128 119.757 26.128C118.882 26.128 118.104 25.9413 117.421 25.568C116.738 25.1947 116.205 24.6613 115.821 23.968C115.437 23.2747 115.245 22.464 115.245 21.536C115.245 20.608 115.432 19.7973 115.805 19.104C116.189 18.4107 116.722 17.8773 117.405 17.504C118.088 17.1307 118.872 16.944 119.757 16.944C120.621 16.944 121.389 17.1253 122.061 17.488C122.733 17.8507 123.256 18.368 123.629 19.04C124.013 19.712 124.205 20.496 124.205 21.392ZM121.405 20.672C121.405 20.2027 121.245 19.8293 120.925 19.552C120.605 19.2747 120.205 19.136 119.725 19.136C119.266 19.136 118.877 19.2693 118.557 19.536C118.248 19.8027 118.056 20.1813 117.981 20.672H121.405Z" fill="white"/>
</svg>
